<svg id="Layer_1" data-name="Layer 1" xmlns="http://www.w3.org/2000/svg" viewBox="0 0 160 34.17"><defs><style>.cls-1{fill:none;}.cls-2{fill:#f65314;}.cls-2,.cls-3,.cls-4,.cls-5,.cls-6{fill-rule:evenodd;}.cls-3{fill:#7fbb41;}.cls-4{fill:#787878;}.cls-5{fill:#00a1f1;}.cls-6{fill:#fb0;}</style></defs><path class="cls-1" d="M0,0H160V34.17H0Z"/><path class="cls-2" d="M0,0H16.25V16.25H0Z"/><path class="cls-3" d="M17.91,0H34.17V16.25H17.91V0Z"/><path class="cls-4" d="M146.57,6.19a6.44,6.44,0,0,1,5.13-.6c0,1,0,2,0,3a3.34,3.34,0,0,0-2.59-.23A2,2,0,0,0,147.94,10a21,21,0,0,0-.07,2.63H153c0-1.11,0-2.23,0-3.34,1.17-.33,2.32-.7,3.48-1.05,0,1.46,0,2.93,0,4.4,1.16,0,2.32,0,3.48,0V15.5c-1.16-.05-2.33,0-3.49,0V20.4c0,.91,0,1.83.06,2.73a1.74,1.74,0,0,0,.76,1.4,2.6,2.6,0,0,0,2.67-.25v2.88a6.91,6.91,0,0,1-3.21.5A4,4,0,0,1,154,26.39,5.34,5.34,0,0,1,153,23c0-2.52,0-5,0-7.56h-5.15V27.33h-3.51c0-3.95,0-7.9,0-11.85-.82,0-1.63,0-2.45,0q0-1.41,0-2.82c.81,0,1.62,0,2.44,0a15.15,15.15,0,0,1,.24-3.75,4.8,4.8,0,0,1,2-2.71ZM71.31,6.4a2.12,2.12,0,0,1,1.94.69,2,2,0,0,1,.25,2.28,2.19,2.19,0,0,1-2.34,1,2,2,0,0,1-1.63-2,2,2,0,0,1,1.78-2Zm-26.94.43h5.11Q51.87,12.89,54.27,19c.41,1,.79,2,1.21,3,2.05-5,4.13-10.09,6.16-15.14,1.64,0,3.28,0,4.92,0q0,10.25,0,20.49c-1.19,0-2.37,0-3.55,0,0-5,0-10.09,0-15.13a5.15,5.15,0,0,0,0-.68,1.74,1.74,0,0,0-.18.33c-2,5.16-4.1,10.3-6.12,15.47-.85,0-1.69,0-2.53,0C52.06,22.18,50,17,47.91,11.84a3.14,3.14,0,0,0-.18-.31c0,2.2,0,4.42,0,6.62v9.18c-1.11,0-2.23,0-3.34,0V6.83ZM81,12.63a9.55,9.55,0,0,1,5.22,0,4.69,4.69,0,0,1,1,.42c0,1.12,0,2.24,0,3.36a5.63,5.63,0,0,0-4-1.23,4.15,4.15,0,0,0-2.92,1.62,5.68,5.68,0,0,0-.93,4.07A4.15,4.15,0,0,0,84,24.78a6.77,6.77,0,0,0,3.16-1.29c0,1.06,0,2.12,0,3.18a8.58,8.58,0,0,1-4.8,1,7.11,7.11,0,0,1-4.58-1.91,7.34,7.34,0,0,1-2.13-4.91,9,9,0,0,1,1.39-5.46A7.12,7.12,0,0,1,81,12.63Zm38.4-.23a9.41,9.41,0,0,1,4.87.51v3.23a6.17,6.17,0,0,0-3.69-1.09,1.89,1.89,0,0,0-1.68.93,1.51,1.51,0,0,0,.51,1.8c1,.66,2.18.95,3.22,1.54a4.66,4.66,0,0,1,2,1.92,4.29,4.29,0,0,1-.92,5,6.7,6.7,0,0,1-4.89,1.48,10.44,10.44,0,0,1-3.57-.82c0-1.13,0-2.26,0-3.4a7.71,7.71,0,0,0,3.19,1.38,4.11,4.11,0,0,0,2.43-.22,1.4,1.4,0,0,0,.42-2,4.23,4.23,0,0,0-1.53-1,14.79,14.79,0,0,1-3-1.56,3.63,3.63,0,0,1-1.31-2,4.49,4.49,0,0,1,.48-3.51,5.28,5.28,0,0,1,3.5-2.15Zm-24.31.47a3.92,3.92,0,0,1,3.26-.28v3.52A3.77,3.77,0,0,0,96,15.55a2.91,2.91,0,0,0-2.2,1.76,6.53,6.53,0,0,0-.5,3v7H89.79c0-4.89,0-9.79,0-14.68,1.16,0,2.32,0,3.47,0v2.52a4.52,4.52,0,0,1,1.82-2.3Zm-25.22-.22c1.16,0,2.33,0,3.49,0,0,4.9,0,9.79,0,14.68H69.85c0-4.89,0-9.79,0-14.68Zm35-.28a9.38,9.38,0,0,1,5,.6,6.18,6.18,0,0,1,3.07,3.1,9.68,9.68,0,0,1,.7,4.64A7.84,7.84,0,0,1,112.06,25a6.8,6.8,0,0,1-4,2.49,10.21,10.21,0,0,1-4.12,0,6.68,6.68,0,0,1-4.06-2.65,8.39,8.39,0,0,1-1.28-5.49,7.81,7.81,0,0,1,1.62-4.49,7,7,0,0,1,4.62-2.47Zm1,2.79a3.7,3.7,0,0,0-2.31.92,4.62,4.62,0,0,0-1.36,3.06,6.73,6.73,0,0,0,.53,3.68,3.5,3.5,0,0,0,2.2,1.82,4.77,4.77,0,0,0,2.87-.13,3.2,3.2,0,0,0,1.73-1.7,7.82,7.82,0,0,0,.49-3.59,4.77,4.77,0,0,0-1.21-3.06,3.82,3.82,0,0,0-2.94-1Zm27-2.79a9.09,9.09,0,0,1,5.22.71,6.28,6.28,0,0,1,3,3.42,9.08,9.08,0,0,1,.55,3.5A8,8,0,0,1,140,25a6.83,6.83,0,0,1-4.32,2.52,9.46,9.46,0,0,1-4.95-.41,6.53,6.53,0,0,1-3.57-3.47,9.75,9.75,0,0,1-.56-5.1,6.88,6.88,0,0,1,6.21-6.18Zm1,2.8a3.57,3.57,0,0,0-2.57,1.23,5.06,5.06,0,0,0-1.06,2.92,7,7,0,0,0,.41,3.2,3.54,3.54,0,0,0,1.86,1.94,4.67,4.67,0,0,0,2.51.28A3.32,3.32,0,0,0,137,23.63a4.57,4.57,0,0,0,.9-2.15,8.72,8.72,0,0,0,0-3.14A3.94,3.94,0,0,0,136.58,16a3.84,3.84,0,0,0-2.81-.83Z"/><path class="cls-5" d="M0,17.91H16.25V34.17H0Z"/><path class="cls-6" d="M17.91,17.91H34.17V34.17H17.91Z"/></svg>